<?xml version="1.0" encoding="utf-8"?>
<!-- Generator: Adobe Illustrator 24.1.2, SVG Export Plug-In . SVG Version: 6.00 Build 0)  -->
<svg version="1.1" id="Layer_1" xmlns="http://www.w3.org/2000/svg" xmlns:xlink="http://www.w3.org/1999/xlink" x="0px" y="0px"
	 viewBox="0 0 512 512" style="enable-background:new 0 0 512 512;" xml:space="preserve">
<style type="text/css">
	.st0{fill:#39B54A;}
</style>
<g>
	<g>
		<path class="st0" d="M355.9,366.2h36.6v-30.4h-48.8l-52-129.9c14.1-10.8,23.2-27.7,23.2-46.8c0-27.2-18.5-50.1-43.7-56.9V90.1
			h20.7V0h-71.7v90.1h20.7v12.1c-25.1,6.7-43.7,29.7-43.7,56.9c0,19.1,9.1,36,23.2,46.8l-52,129.9h-48.8v30.4h36.6l-53.9,134.5
			l28.2,11.3l58.4-145.9h51.9v31.1h30.4v-31.1h51.9L381.5,512l28.2-11.3L355.9,366.2z M271.2,335.7v-31.1h-30.4v31.1h-39.7
			l47.4-118.3c2.5,0.3,5,0.5,7.5,0.5s5.1-0.2,7.5-0.5l47.4,118.3H271.2z"/>
	</g>
</g>
</svg>
