<?xml version="1.0" encoding="utf-8"?>
<!-- Generator: Adobe Illustrator 24.1.2, SVG Export Plug-In . SVG Version: 6.00 Build 0)  -->
<svg version="1.1" id="Layer_1" xmlns="http://www.w3.org/2000/svg" xmlns:xlink="http://www.w3.org/1999/xlink" x="0px" y="0px"
	 viewBox="0 0 512 512" style="enable-background:new 0 0 512 512;" xml:space="preserve">
<style type="text/css">
	.st0{fill:#39B54A;}
</style>
<g>
	<g>
		<rect x="245.1" y="387" class="st0" width="21.7" height="21.7"/>
	</g>
</g>
<g>
	<g>
		<path class="st0" d="M329.7,150.1v-23.1L258.5,0.5l-71.2,126.4v23.1H0v294.7h212.1v35.4h-53.3v31.3h53.3h87.8h53.3v-31.3h-53.3
			v-35.4H512V150.1H329.7z M250.4,78.9h16.3l24.5,43.6h-65.3L250.4,78.9z M218.7,153.8h79.6v196.3h-79.6L218.7,153.8L218.7,153.8z
			 M31.3,181.4h156v0v168.7h-156V181.4z M268.5,480.1h-25.1v-35.4h25.1V480.1z M480.7,413.4H299.9h-87.8H31.3v-31.9h156h142.3h151
			L480.7,413.4L480.7,413.4z M480.7,181.4v168.7h-151V181.4L480.7,181.4L480.7,181.4z"/>
	</g>
</g>
</svg>
